<svg width="26" height="25" viewBox="0 0 26 25" fill="none" xmlns="http://www.w3.org/2000/svg">
<path d="M19.5732 10.7582C19.5732 14.1152 16.7936 16.8366 13.3648 16.8366C9.936 16.8366 7.15639 14.1152 7.15639 10.7582C7.15639 9.8123 7.3835 8.92052 7.77689 8.12248H0.919998V22.3368C0.919998 23.6398 2.00889 24.7059 3.33975 24.7059H23.3891C24.72 24.7059 25.8089 23.6398 25.8089 22.3368V8.12248H18.9523C19.3601 8.94382 19.5724 9.84499 19.5732 10.7582ZM23.3891 0H3.33975C2.00889 0 0.919998 1.06608 0.919998 2.36906V7.10717H8.40913C9.54227 5.63531 11.337 4.6799 13.3644 4.6799C15.3919 4.6799 17.1866 5.63531 18.3198 7.10717H25.8089V2.36906C25.8089 1.06608 24.72 0 23.3891 0ZM2.90973 5.99575H2.00889V2.57923C2.00886 2.29567 2.09437 2.01843 2.2547 1.78228C2.41502 1.54614 2.64302 1.36162 2.91007 1.25188V5.99575H2.90973ZM4.38578 5.99575H3.53229V1.13986H4.38578V5.99575ZM5.86148 5.99575H5.008V1.13986H5.86148V5.99575ZM7.33615 2.57923V5.99575H6.4837V1.13986H7.33615V2.57923ZM24.5475 4.55637C24.5475 4.74535 24.5096 4.93249 24.4358 5.10709C24.3619 5.2817 24.2537 5.44037 24.1172 5.57402C23.9808 5.70768 23.8188 5.81372 23.6405 5.88608C23.4622 5.95844 23.271 5.9957 23.078 5.99575H20.6897C20.4967 5.99575 20.3055 5.95851 20.1272 5.88617C19.9488 5.81383 19.7868 5.70781 19.6503 5.57414C19.5138 5.44048 19.4055 5.2818 19.3317 5.10717C19.2578 4.93254 19.2199 4.74538 19.2199 4.55637V2.57923C19.2199 2.39022 19.2578 2.20306 19.3317 2.02843C19.4055 1.8538 19.5138 1.69512 19.6503 1.56146C19.7868 1.4278 19.9488 1.32177 20.1272 1.24943C20.3055 1.17709 20.4967 1.13986 20.6897 1.13986H23.078C23.2711 1.13986 23.4622 1.17709 23.6405 1.24943C23.8189 1.32178 23.9809 1.42781 24.1173 1.56148C24.2538 1.69515 24.362 1.85383 24.4358 2.02845C24.5097 2.20308 24.5476 2.39024 24.5475 2.57923V4.55637Z" fill="url(#paint0_radial_5_6)"/>
<path d="M13.3648 16.1258C16.3847 16.1258 18.8328 13.728 18.8328 10.7721C18.8328 7.81585 16.385 5.41803 13.3648 5.41803C10.3443 5.41803 7.89616 7.81585 7.89616 10.7721C7.89616 13.7277 10.3443 16.1258 13.3648 16.1258ZM13.3645 6.50644C15.7704 6.50644 17.7214 8.41624 17.7214 10.7721C17.7214 13.1276 15.7707 15.0378 13.3645 15.0378C10.9582 15.0378 9.00752 13.128 9.00752 10.7721C9.00787 8.4159 10.9585 6.50644 13.3645 6.50644Z" fill="black"/>
<defs>
<radialGradient id="paint0_radial_5_6" cx="0" cy="0" r="1" gradientUnits="userSpaceOnUse" gradientTransform="translate(19.5867 6.17647) rotate(126.633) scale(23.0904 26.087)">
<stop stop-color="#EA3858"/>
<stop offset="1" stop-color="#A2083F"/>
</radialGradient>
</defs>
</svg>
