<svg width="24" height="24" viewBox="0 0 24 24" fill="none" xmlns="http://www.w3.org/2000/svg">
<path d="M23.8089 11.6806C23.8089 9.87359 22.6194 8.40399 21.1588 8.40399C20.526 8.40399 19.9341 8.69022 19.4564 9.19089C19.441 9.20264 19.4251 9.21376 19.4099 9.22583C17.6868 7.86265 15.4018 6.9922 12.8742 6.87402L14.3828 1.56935L18.1482 2.68252C18.1513 4.15434 19.1196 5.35105 20.3115 5.35105C21.5041 5.35105 22.4752 4.15116 22.4752 2.67584C22.4752 1.19989 21.5041 0 20.3115 0C19.4048 0 18.6302 0.693184 18.3091 1.67101L13.8479 0.352628L11.9953 6.86195C9.3596 6.92327 6.97104 7.80515 5.18367 9.21408C4.70246 8.69784 4.10205 8.40367 3.4577 8.40367C1.99661 8.40367 0.808884 9.87359 0.808884 11.6803C0.808884 12.7979 1.27519 13.8303 2.03078 14.4314C1.98254 14.7588 1.95735 15.0907 1.95551 15.4235C1.95551 20.1525 6.59106 24 12.2885 24C17.9869 24 22.6227 20.1525 22.6227 15.4235C22.6213 15.1003 22.5979 14.7777 22.5528 14.4593C23.3287 13.8627 23.8089 12.8153 23.8089 11.6806ZM15.8023 15.9226C15.5885 15.9226 15.3768 15.8706 15.1793 15.7694C14.9818 15.6682 14.8023 15.5199 14.6512 15.3329C14.5001 15.1459 14.3802 14.9239 14.2985 14.6796C14.2168 14.4353 14.1748 14.1735 14.175 13.9091C14.1751 13.5109 14.2706 13.1217 14.4496 12.7907C14.6285 12.4596 14.8829 12.2016 15.1804 12.0493C15.4779 11.897 15.8053 11.8573 16.1212 11.9351C16.437 12.0129 16.727 12.2047 16.9547 12.4864C17.1823 12.768 17.3373 13.1268 17.4 13.5174C17.4627 13.908 17.4303 14.3127 17.307 14.6806C17.1836 15.0484 16.9748 15.3627 16.707 15.5838C16.4392 15.8049 16.1243 15.9228 15.8023 15.9226ZM16.1263 19.3555C16.0775 19.4171 14.9103 20.887 12.2702 20.887C9.61549 20.887 8.55442 19.3974 8.50998 19.3332C8.43851 19.2294 8.40319 19.0948 8.41177 18.9589C8.42034 18.823 8.47209 18.6968 8.55571 18.608C8.63939 18.5202 8.7476 18.4765 8.85706 18.4864C8.96651 18.4962 9.06846 18.5588 9.14097 18.6607C9.1646 18.6937 10.0505 19.8587 12.2702 19.8587C14.527 19.8587 15.5174 18.6521 15.5279 18.6404C15.6053 18.5461 15.7094 18.493 15.818 18.4924C15.9266 18.4918 16.0311 18.5436 16.1092 18.637C16.1873 18.7303 16.2328 18.8577 16.236 18.9919C16.2392 19.1262 16.1998 19.2566 16.1263 19.3555ZM7.37826 13.9091C7.37452 13.6418 7.41389 13.3762 7.49406 13.1279C7.57424 12.8795 7.69362 12.6535 7.84523 12.4628C7.99684 12.2722 8.17765 12.1208 8.3771 12.0175C8.57654 11.9142 8.79063 11.861 9.00687 11.8612C9.2231 11.8613 9.43715 11.9147 9.63652 12.0182C9.83589 12.1217 10.0166 12.2734 10.168 12.4642C10.3195 12.655 10.4387 12.8812 10.5187 13.1296C10.5987 13.3781 10.6379 13.6437 10.6339 13.911C10.6261 14.4387 10.4511 14.9414 10.1465 15.3111C9.84192 15.6807 9.43211 15.8877 9.00533 15.8875C8.57854 15.8872 8.1689 15.6798 7.86459 15.3098C7.56028 14.9397 7.38563 14.4368 7.37826 13.9091Z" fill="#F5470F"/>
</svg>
