<svg width="27" height="24" viewBox="0 0 27 24" fill="none" xmlns="http://www.w3.org/2000/svg">
<path d="M24.2811 0H3.33666C1.94638 0 0.808884 1.05 0.808884 2.33333V21.6667C0.808884 22.95 1.94638 24 3.33666 24H24.2811C25.6714 24 26.8089 22.95 26.8089 21.6667V2.33333C26.8089 1.05 25.6714 0 24.2811 0ZM19.8449 20.0573C19.0074 20.4213 18.2491 20.6777 17.5706 20.824C16.8917 20.9707 16.1575 21.0437 15.3685 21.0437C14.4733 21.0437 13.6814 20.9393 12.9928 20.7307C12.3045 20.5217 11.7173 20.2233 11.2313 19.838C10.7449 19.451 10.4079 19.04 10.2205 18.6043C10.0327 18.1693 9.93886 17.5383 9.93886 16.7117V10.3673H7.77291V7.808C8.54244 7.577 9.20255 7.24633 9.75108 6.815C10.2999 6.38436 10.7492 5.85622 11.0724 5.262C11.405 4.65833 11.6332 3.88967 11.7581 2.95667H14.5452V7.52833H19.1952V10.3677H14.5452V15.0063C14.5452 16.0547 14.6051 16.7277 14.7257 17.026C14.8456 17.3237 15.0699 17.5613 15.3967 17.739C15.83 17.9787 16.3258 18.099 16.8841 18.099C17.8757 18.099 18.8626 17.801 19.8445 17.2053V20.0573H19.8449Z" fill="#17BAEE"/>
</svg>
