<svg width="654" height="32" viewBox="0 0 654 32" fill="none" xmlns="http://www.w3.org/2000/svg">
<path fill-rule="evenodd" clip-rule="evenodd" d="M116.178 1.49504C116.185 0.664172 117.017 -0.00516686 118.037 3.00589e-05C160.496 0.216364 202.955 0.507209 245.413 0.798049C271.192 0.974637 296.971 1.15122 322.75 1.31113C361.96 0.635154 397.061 0.216352 422.401 0.216352C434.874 0.216352 459.776 0.649631 478.436 1.08237C487.764 1.29868 495.557 1.51544 499.467 1.6787C500.44 1.71933 501.2 1.75772 501.687 1.79351C501.898 1.80895 502.164 1.83082 502.374 1.86817C502.427 1.87758 502.555 1.9011 502.702 1.94808C502.765 1.96831 502.896 2.01264 503.046 2.09194C511.397 2.02399 519.75 1.975 528.102 1.94718C547.518 1.88249 586.344 1.8825 615.459 1.89866C630.018 1.90675 642.151 1.91887 648.218 1.92898C649.734 1.93151 650.873 1.93391 651.576 1.93609C651.926 1.93718 652.173 1.93823 652.305 1.93924L652.391 1.9401L652.434 1.9409L652.475 1.94221C652.499 1.94325 652.585 1.94918 652.649 1.95571C653.654 2.34984 653.902 4.30714 652.661 4.93306C652.591 4.94045 652.498 4.94697 652.474 4.94805C652.444 4.94924 652.417 4.94968 652.409 4.94981L652.408 4.94982C652.384 4.95022 652.354 4.95049 652.325 4.9507C651.859 4.95406 649.42 4.95606 644.574 4.95606C602.642 4.95606 560.76 5.07026 518.878 6.25327C436.13 8.59056 353.487 12.7404 271.056 18.9532C362.251 17.4411 453.587 17.0882 544.684 21.4214C554.239 21.8758 573.479 23.062 584.956 24.4644C585.059 24.4769 585.236 24.4845 585.58 24.4945L585.62 24.4957C585.906 24.5039 586.294 24.5152 586.659 24.5511C586.983 24.5831 587.595 24.6577 588.136 24.9371C588.443 25.0958 588.805 25.3609 589.023 25.7759C589.247 26.201 589.235 26.6232 589.13 26.9661C588.927 27.6271 588.535 28.2116 587.93 28.6675C587.334 29.1163 586.632 29.3655 585.948 29.4958C584.649 29.7434 583.174 29.6043 581.886 29.4092C580.921 29.263 579.879 29.0529 578.907 28.857C578.558 28.7867 578.218 28.7183 577.894 28.6552C576.59 28.4012 575.513 28.2285 574.681 28.2135C558.831 27.9266 542.993 27.4183 527.171 26.8981L524.318 26.8042C509.445 26.3145 494.586 25.8252 479.722 25.5089C409.562 24.0162 339.361 24.585 269.222 26.8064C253.44 27.3063 237.613 28.2593 221.738 29.2152C218.138 29.432 214.536 29.6489 210.931 29.8607C191.448 31.0056 171.91 32 152.42 32C150.887 32 149.688 31.9716 148.814 31.913C148.381 31.8839 147.984 31.8446 147.647 31.7882C147.416 31.7496 146.852 31.6526 146.391 31.3472C146.11 31.1611 145.664 30.7562 145.651 30.1238C145.64 29.5326 146.021 29.1389 146.217 28.9721C146.58 28.6624 147.05 28.4977 147.273 28.4226C147.844 28.2299 148.663 28.0455 149.601 27.8658C153.412 27.1353 160.974 26.1559 169.946 25.1231C174.109 24.6439 178.596 24.151 183.182 23.6636C136.403 24.6469 93.803 25.717 47.3066 27.023C38.2721 27.2768 29.2463 27.5308 20.2252 27.846C20.1712 27.8829 20.124 27.9108 20.0889 27.9306C19.9678 27.9989 19.8605 28.042 19.7958 28.0659C19.6679 28.1133 19.5592 28.1393 19.5088 28.1508C19.4483 28.1646 19.3952 28.1743 19.357 28.1808C19.2217 28.2037 19.0723 28.2195 18.9516 28.231C18.6861 28.2562 18.2943 28.2848 17.7704 28.3176C17.4287 28.339 17.1015 28.2832 16.8147 28.1683C15.554 28.1821 13.9452 28.211 12.5192 28.2366C12.3445 28.2397 12.1724 28.2428 12.0041 28.2458C11.0434 28.263 10.2002 28.2775 9.67918 28.2824C9.4508 28.2845 9.20241 28.2861 9.05515 28.2792C9.03004 28.2781 8.98292 28.2756 8.92668 28.2703C8.89879 28.2677 8.85091 28.2627 8.79254 28.2538C8.75276 28.2478 8.62021 28.2273 8.46055 28.1769C8.3729 28.1471 8.15687 28.0539 8.03252 27.9855C7.84138 27.8538 7.4605 27.4224 7.32698 27.1112C7.28076 26.7231 7.49605 26.0665 7.69608 25.8214C7.84273 25.6914 8.11423 25.5145 8.22684 25.4589C8.41831 25.3717 8.58608 25.3332 8.62793 25.3236L8.62999 25.3232C8.69672 25.3078 8.75144 25.2985 8.78132 25.2937C8.88022 25.2779 8.97042 25.2703 8.99967 25.2679L9.00172 25.2677C9.04805 25.2638 9.09759 25.2604 9.14608 25.2573C9.84326 25.2128 12.6028 25.1049 18.8762 24.8819C28.3124 24.5463 37.7508 24.2807 47.1793 24.0159C95.2952 22.6644 139.242 21.5654 187.963 20.5539C199.387 20.3167 210.814 20.0809 222.245 19.8535C222.881 19.7981 223.491 19.7456 224.073 19.6961C297.079 13.4906 370.263 8.94243 443.551 5.87708C391.181 6.79113 338.812 8.24659 286.431 9.70235C283.785 9.7759 281.138 9.84945 278.492 9.92293C195.28 12.2334 112.041 14.4755 28.7839 14.4755C20.5734 14.4755 14.4016 14.4316 10.0832 14.3488C7.9254 14.3074 6.21701 14.2561 4.94238 14.1948C3.72916 14.1365 2.75682 14.0639 2.18025 13.9491C2.04234 13.9216 1.77768 13.8644 1.51204 13.7446C1.38399 13.6868 1.11763 13.5544 0.887187 13.307C0.615488 13.0152 0.398634 12.5559 0.549618 12.0261C0.678484 11.5738 1.01364 11.3038 1.17721 11.19C1.35773 11.0644 1.53261 10.9884 1.63632 10.9474C1.84723 10.8641 2.05839 10.8124 2.20524 10.7802C2.7843 10.6532 3.73572 10.5432 4.90295 10.4376C7.31754 10.2191 11.1967 9.97555 16.3215 9.71177C36.8417 8.65554 77.8629 7.24864 127.063 5.84242C154.023 5.07185 183.449 4.30121 213.316 3.58839C181.545 3.37429 149.777 3.17071 118.013 3.00887C116.994 3.00367 116.172 2.32591 116.178 1.49504ZM322.774 4.32026C260.4 5.39587 187.614 7.12251 127.192 8.84946C96.0102 9.74071 68.1342 10.6317 46.6893 11.4328C123.905 11.1448 201.119 9.06061 278.366 6.91577C281.019 6.84211 283.673 6.76837 286.326 6.69463C312.673 5.96237 339.025 5.23 365.38 4.56652C351.178 4.49136 336.976 4.40834 322.774 4.32026ZM652.328 4.94856C652.333 4.94864 652.331 4.94863 652.324 4.94845L652.328 4.94856ZM3.05724 11.0262C3.03771 11.0223 3.04054 11.0221 3.06014 11.0268C3.05917 11.0266 3.0582 11.0264 3.05724 11.0262ZM3.14316 13.6908C3.13875 13.692 3.13639 13.6926 3.13631 13.6926C3.13624 13.6925 3.13844 13.6919 3.14316 13.6908ZM9.38048 28.2607C9.3812 28.2607 9.38226 28.2606 9.38368 28.2605C9.37387 28.2614 9.37191 28.2615 9.38048 28.2607ZM222.486 22.8585C209.941 23.9527 187.484 26.143 170.463 28.1024C168.154 28.3683 165.95 28.6292 163.889 28.882C179.44 28.5951 195.038 27.7779 210.666 26.8596C214.255 26.6487 217.847 26.4324 221.441 26.216C237.32 25.2597 253.226 24.3019 269.079 23.7998C339.289 21.5762 409.57 21.0064 479.819 22.5011C494.71 22.8179 509.594 23.308 524.461 23.7976L527.32 23.8917C533.329 24.0892 539.335 24.2849 545.34 24.4673C545.041 24.4526 544.751 24.4386 544.469 24.4251C437.324 19.3286 329.825 20.7234 222.486 22.8585ZM148.298 28.822C148.299 28.8216 148.314 28.8245 148.339 28.8316C148.31 28.8259 148.298 28.8223 148.298 28.822ZM148.625 31.2244C148.609 31.2318 148.6 31.2353 148.599 31.2353C148.598 31.2353 148.606 31.2316 148.625 31.2244Z" fill="#17BAEE"/>
</svg>
