<svg width="27" height="24" viewBox="0 0 27 24" fill="none" xmlns="http://www.w3.org/2000/svg">
<path d="M4.70888 24C3.62555 24 2.70472 23.65 1.94638 22.95C1.18805 22.25 0.808884 21.4 0.808884 20.4V18.6375C0.808884 17.6875 1.18155 16.806 1.92688 15.993C2.67113 15.181 3.65263 14.481 4.87138 13.893C6.09013 13.306 7.46488 12.8435 8.99563 12.5055C10.5253 12.1685 12.0755 12 13.6464 12C15.2172 12 16.788 12.1685 18.3589 12.5055C19.9297 12.8435 21.338 13.3125 22.5839 13.9125C23.8297 14.5125 24.8453 15.219 25.6308 16.032C26.4162 16.844 26.8089 17.725 26.8089 18.675V20.4C26.8089 21.4 26.4297 22.25 25.6714 22.95C24.913 23.65 23.9922 24 22.9089 24H4.70888ZM13.6464 10.5C12.0755 10.5 10.7349 9.9875 9.62451 8.9625C8.51409 7.9375 7.95888 6.7 7.95888 5.25C7.95888 3.8 8.51409 2.5625 9.62451 1.5375C10.7349 0.5125 12.0755 0 13.6464 0C15.2443 0 16.5914 0.5125 17.6878 1.5375C18.7852 2.5625 19.3339 3.8 19.3339 5.25C19.3339 6.7 18.7787 7.9375 17.6683 8.9625C16.5578 9.9875 15.2172 10.5 13.6464 10.5Z" fill="#F3F806"/>
</svg>
