<svg width="26" height="25" viewBox="0 0 26 25" fill="none" xmlns="http://www.w3.org/2000/svg">
<path d="M24.4894 0H1.43064C1.05121 0 0.687322 0.142354 0.419025 0.395746C0.150728 0.649137 0 0.99281 0 1.35116V23.1292C9.54622e-05 23.4875 0.150865 23.8311 0.419152 24.0844C0.687439 24.3377 1.05127 24.48 1.43064 24.48H13.8445V15.0001H10.4666V11.3057H13.8445V8.58092C13.8445 5.41892 15.8893 3.6975 18.8759 3.6975C20.3065 3.6975 21.5359 3.7978 21.8945 3.84302V7.14748L19.823 7.1485C18.1987 7.1485 17.8844 7.87746 17.8844 8.9471V11.306H21.758L21.2537 15.0005H17.8844V24.48H24.4897C24.8691 24.4799 25.2329 24.3375 25.5011 24.0841C25.7693 23.8308 25.92 23.4871 25.92 23.1288V1.35116C25.92 0.99281 25.7693 0.649137 25.501 0.395746C25.2327 0.142354 24.8688 0 24.4894 0Z" fill="#2032D2"/>
</svg>
